<?xml version="1.0" encoding="UTF-8"?><svg xmlns="http://www.w3.org/2000/svg" viewBox="0 0 500 500"><g isolation="isolate"><g id="Planet"><path d="m145.97,52.99h-3.44c4-9.01,14.12-13.65,19.68-21.55-1.09-.15-1.95-.28-1.95-.28l-7.37-12.55-3.01-.1s-.3.4-.89,1.68c-.59,1.29-5.83,5.04-5.83,5.04l-5.04.69-4.37-10.33-3.94-4.3s-1.48,1.88-2.27,2.57c-.79.69-.49,9.79-.49,9.79,0,0-2.67,9.99-2.87,11.17-.2,1.19-4.66,6.22-4.66,6.22l-.97,3.87-4.75-2.16c-.49,12.73-4.94,23.54-11.42,34.35,17.21-2.29,35.56-8.03,43.6-24.09Z" fill="#c52e24"/><path d="m215.24,38.67l-10.48-.29-20.07-6.6-9.24-10.16-2.23-1.04s-.69,1.19-1.29,3.68c-.59,2.5-4.55,7.19-5.04,7.52-.31.21-2.84-.09-4.68-.34-5.56,7.9-15.68,12.54-19.68,21.55h3.44c-8.03,16.06-26.39,21.8-43.6,24.09,6.49-10.81,10.93-21.62,11.42-34.35l-4.97-2.26s-.87,6.8-.87,9.17-.79,7.51-1.68,8.4c-.89.89-.4,5.34-.4,5.34,0,0-12.26,8.5-14.84,10.48-2.58,1.98-15.16,14.62-15.16,14.62l-9.88,12.83s-2.27,1.02-5.45,1.7c-3.18.68-13,4.54-13.6,4.65s-6.63.44-6.63.44c0,0-6.02,2.79-6.02,3.61s-1.37,5.31-1.37,5.31l-2.35-.38-4.71.93-3.78.27-1.11,2.37,6.63,8.92-2.17,19.79-2.88,1.24-8.48,5.89s-3.77,4.06-4.59,5.21-6.97,4.74-6.97,4.74l-2.03,2.5.61,1.76s.54,2.71.74,2.71,4.35,4.44,4.35,4.44l6.53,11.56,8.26,19.68-1.43,8.22c11.73,8.4,23.24,18.88,38.08,12.77,8.03-3.44,10.33-11.47,4.59-19.5,11.47-1.15,22.94,1.15,30.98,6.88,3.44,2.29,6.88,6.88,10.33,8.03,16.06,8.03,29.83,17.21,44.74,27.53,2.29,1.15,6.88,1.15,9.18,0,6.88-3.44,12.62-6.88,18.36-10.33,14.91-9.18,22.94-29.83,37.86-35.56,37.56-11.86,74.91-23.29,112.5-33.02l30.49-96.92-141.41-38.11Z" fill="#f72e3c"/><path d="m53.05,384.54c1.15-3.44,3.44-5.74,3.44-8.03,1.15-8.03-9.18-11.47-9.18-19.5,6.88,1.15,13.77,3.44,19.5,6.88-9.18-29.83-21.8-57.36-24.09-88.34,0-3.44-2.29-6.88-3.44-10.33-4.35-11.95-2.52-23.91-.36-35.86-6.76-2.81-13.03-7.94-19.36-12.48l-.89,5.1,1.42,4.63-.26,3.64s.09,3.47-3.55,4.42c-3.64.95,0,3.64,0,3.64l2.08,2.25.1,5.72-.77,8.03s2.63,14.08,2.63,17.18-.57,10.19,1.83,16.37c2.4,6.18,3.78,22.79,3.66,24.28-.11,1.49,10.96,34.58,10.96,34.58l2.32,8.7s-2.63,5.04-2.29,7.21,2.98,17.98,3.09,19.35-3.09,27.71-3.09,27.71l4.01-.11s2.23-1.59,4.78-3.34c1.36-1.87,2.72-3.75,4-5.67,3.44-3.44,2.29-10.33,3.44-16.06Z" fill="#f72e3c"/><path d="m213.66,206.71c-14.91,5.74-22.94,26.39-37.86,35.56-5.74,3.44-11.47,6.88-18.36,10.33-2.29,1.15-6.88,1.15-9.18,0-14.91-10.33-28.68-19.5-44.74-27.53-3.44-1.15-6.88-5.74-10.33-8.03-8.03-5.74-19.5-8.03-30.98-6.88,5.74,8.03,3.44,16.06-4.59,19.5-6.83,2.81-12.95,2.1-18.72-.29-2.15,11.95-3.98,23.91.36,35.86,1.15,3.44,3.44,6.88,3.44,10.33,2.29,30.98,14.91,58.51,24.09,88.34-5.74-3.44-12.62-5.74-19.5-6.88,0,8.03,10.33,11.47,9.18,19.5,0,2.29-2.29,4.59-3.44,8.03-1.15,5.74,0,12.62-3.44,16.06-1.28,1.92-2.64,3.8-4,5.67,2.71-1.87,5.78-3.92,6.9-4.45,2.18-1.03,5.61-1.03,5.61-1.03,0,0,4.58,2.52,5.84,3.89s4.35,18.09,4.24,20.04c-.11,1.95-1.37,17.18-1.37,17.18l1.83,1.49s1.49-.11,11.34-.11,19.47-2.29,19.47-2.29c0,0,3.21,5.04,3.78,6.3s1.95,10.31,1.95,10.31c0,0,7.67-.11,11.11-1.37,3.44-1.26,12.25-2.98,12.25-2.98,0,0,1.03,1.72,2.06,2.18,1.03.46,2.18,4.92,2.18,4.92l3.21-.57,3.66.46,5.5-.46h6.76v5.15s1.03,7.33,1.15,8.57c.11,1.24,1.03,10.67,1.03,10.67l2.01.69s9.44-6.87,13.33-6.87,10.76-1.83,13.97-2.06c3.21-.23,9.05-1.6,11.57-1.64,2.52-.04,7.44-1.45,9.16-2.37,1.72-.92,5.61,0,5.61,0,0,0,6.3,2.86,7.56,2.98,1.26.11,14.56-1.39,14.56-1.39l94.31-299.78c-37.59,9.73-74.94,21.16-112.5,33.02Z" fill="#c52e24"/><path d="m389.26,419.64s-.51,3.6-2.94,4.86c-2.43,1.26-.78,7.84-7.25,7.6-6.47-.23-116.69,1.46-116.69,1.46l-16.09,38.39s-1.91,2.1-5.84,1.38c-3.93-.71-7.51.95-10.01-.48-2.5-1.43-21.45-19.12-25.86-26.72-4.41-7.6-20.61-28.21-28.6-36.19-7.98-7.98-18.83-42.42-19.18-49.09-.36-6.67-3.34-39.44,6.08-56,9.41-16.56,39.68-38.85,47.9-47.31,8.22-8.46,14.78-27.29,24.9-35.87,10.13-8.58,14.66-21.33,16.32-32.65,1.67-11.32,7.63-41.23,12.75-48.26,5.12-7.03,8.46-20.5,3.57-31.7-4.89-11.2-11.33-24.64-21.26-34.01-9.92-9.37-14.84-14.38-23.65-19.66-8.81-5.29-18.22-17.26-18.22-17.26,0,0,1.89-4.2,9.78-3.02,7.88,1.18,8.03-3.5,16.26.55,8.23,4.06,31.04,17.69,31.04,17.69l17.07,15.86,109.9,350.43Z" fill="#ffc030"/><path d="m196.98,371.34s-5.57-6.08-5.68-6.31-1.36-2.96-1.36-2.96c0,0,.18-24.19,0-27.35s1.77-12.79,2.38-13.76c.61-.97,5.62-9.67,5.92-11.04.3-1.37,9.75-21.33,11.73-25.37,1.98-4.04,31.91-47.35,34.94-50.51,3.02-3.16,17.75-26.64,18.45-27.7s10.18-31.49,10.18-32.07,6.12-29.94,8.94-35.86c2.82-5.93.97-28.87.97-29.55s-17.3-24.49-21.77-29.64-5.73-6.9-8.65-13.51c-2.92-6.61-10.89-17.59-13.51-20.9-2.62-3.3-8.26-9.14-8.26-9.14l4.96-3.89s14.48.29,18.66.68c4.18.39,20.02,3.7,22.84,3.68s45.58-2.31,45.58-2.31l44.22,26.92,12.93,6.12-19,238.52-164.47,65.95Z" fill="#fe8100"/><polygon points="475.68 226.34 475.68 230.44 469.41 235.6 464.78 241.96 456.41 231.06 475.68 226.34" fill="#fe8100"/><path d="m351.5,395.93s12.63,7.07,16.63,11.34c4,4.27,1.42,4.81,4.89,4.81s10.41,3.38,11.04,3.56,3.65,3.56,3.92,3.56,1.07.44,1.07.44h3.2s15.93-16.55,20.65-22.43c4.72-5.87,16.02-25.01,19.4-30.35,3.38-5.34,9.08-15.93,9.26-18.42.18-2.49,2.58-5.33,2.58-5.33l3.74-1.25,2.49-3.92-.62-5.25s10.5-3.83,12.28-4.89,2.76-2.85,2.76-2.85l-.71-4.09-2.85-8.37s21.09-12.01,26.79-14.42c5.7-2.4,9.79-5.16,9.79-5.16l1.7-4.29s-48.87-1.23-50.92-1.23-97.08,108.54-97.08,108.54Z" fill="#fe8100"/><path d="m317.48,486.66s7.49-4.64,9-6.51,3.83-8.19,3.83-8.19l4.62,5.79,2.14.8,2.22-2.22s1.87-14.6,1.87-15.31,2.94-4.45,3.38-4.81,11.12-4.63,16.46-7.92c5.34-3.29,12.82-9.61,12.82-9.61l5.25-6.59s-12.37-12.46-23.14-17.89c-10.77-5.43-19.76-13.35-23.94-13.35s-19.67-3.65-24.38-3.74c-4.72-.09-21.8.27-29.46,0-7.65-.27-22.25-6.94-26.16-8.1-3.92-1.16-15.22-2.05-21.18-2.14-5.96-.09-19.58.8-22.78.89-3.2.09-7.39-.81-9.7-.9s-4.72.36-4.72.36l-1.87,4.98-.44,2.44,81.69,27.91,44.48,64.09Z" fill="#fe8100"/><path d="m282.35,469.64s-14.1,4.63-18.64,4.63-17.41-2.31-17.41-2.31l-16.65-16.1s-19.05-25.37-26.74-32.61c-7.69-7.25-11.6-26.04-11.6-26.04v-2.52s21.57-3.15,39.23-1.14c17.66,2.02,41.61,10.6,51.14,10.72s15.08-1.14,31.48,2.27c16.4,3.41,37.97,15.14,37.97,15.14,0,0-7.06,3.15-13.62,8.07-6.56,4.92-7.91,8.2-14.49,10.22-6.58,2.02-10.74,6.94-10.74,6.94,0,0,8.83,1.14,12.36,1.14s14.25-1.51,18.42-1.89c4.16-.38,13.62-1.51,13.62-1.51l3.41-.5v1.14l-5.55.88s-18.42,12.87-24.6,12.87-47.58,10.64-47.58,10.64Z" fill="#c52e24"/><path d="m359.82,391.77s34.49-35.9,47.14-42.92c12.65-7.03,24.27-31.04,29.25-36.41,4.98-5.37,11.5-6.77,11.5-6.77,0,0,9.58-5.24,20.06-7.03s31.74-10.02,31.74-10.02l-39.78-37.5.55-16.75,13.89-5.19,1.53-2.84s-11.62-13.8-13.8-14.56c-2.17-.77-4.85-9.33-4.85-9.33l-1.66-8.05s-4.34-17.88-4.6-23.89-4.55-15.87-4.45-20.26c.1-4.39-1.94-23.42-1.94-25.72s1.02-14.43,1.02-15.84-1.02-3.07-1.02-3.07c0,0-4.34,1.02-6,1.02s-10.05,3.6-10.41,2.78-4.54-4.57-4.54-4.57l-5.37-28.74.77-12.33-.2-1.16-3.88-2.22-15.17,5.24-2.09-15.85-2.17-3.25-11.88,5.05s-7.46,8.44-10.18,8.37l-2.72-.07,19.07-30.02v-3.19h-3.74s-7.48,1.15-7.51,1.28-15.16,7.15-16.92,7.15c-1.76,0-14.23,2.68-14.23,2.68l-7.25,3.11,3.41-16.65-9.1.64s-12.39,6.64-15.2,6.77c-2.81.13-9.71,1.41-11.24,1.53-1.53.13-5.11-.38-9.71-.13s-12.65,2.81-14.05,2.94c-1.41.13-6.77.13-7.41.13s11.24,3.45,17.37,3.45,15.46-.77,15.46-.77l11.5-.64s-4.47,1.66-9.2,2.68c-4.73,1.02-12.26,4.98-12.26,4.98,0,0-6.13,1.14-6.77.7s6.53,3.89,13.34,4.01c6.81.12,18.08,0,19.69.12,1.61.12,16.72,1.11,16.72,1.11v2.11s-6.81,2.23-11.02,2.72-12.38,3.47-14.74,3.59c-2.35.12-10.77,0-10.77,0,0,0,6.75,3.5,7.92,4.2,1.17.7,11.91,6.3,11.91,6.3,0,0,5.65,1.94,8.47,1.94s13.95.27,16.24.27,2.28.54,7.78-.27c5.5-.81,17.39-3.82,17.39-3.82,0,0,.56,3.26,0,5.73-.56,2.47-9.74,18.89-9.74,18.89l-18.25,16.31.14,3.82s5.1,1.88,8.05.54,5.57-.4,5.57-.4l-1.75,3.09s-3.15,9.26-4.63,15.83-4.03,13.55-5.37,18.65c-1.34,5.1-11.81,21.87-13.15,32.2-1.34,10.33-7.11,12.88-9.8,15.43-2.68,2.55-6.71,4.16-6.71,4.16l-.13,4.93s3.49,1.78,5.23,3.25c1.74,1.48,3.35,3.35,3.35,3.35,0,0-5.23,5.23-5.9,6.44s-5.5,5.64-5.5,5.64c0,0,2.68,7.96,2.82,12.1.13,4.14,1.66,26.5,1.66,29.3s2.48,17.71,2.48,17.71c0,0-4.11,2.86-7.98,2.84-3.87-.02-11.05-.69-11.05-.69l-14.89-6.43-6.41-8.31s-2.8-2.89-2.98-1.81c-.18,1.08-.54,4.61-.54,4.61,0,0,6.68,11.14,8.49,13.2,1.81,2.06,3.43,5.85,3.43,5.85l-5.33,1.35s-10.66-7.22-15.44-9.66c-4.79-2.44-18.96-12.32-18.96-12.32,0,0-2.63,18.37,2.66,23.49,5.3,5.12,8.12,11.65,8.12,11.65l2.65,6.36s-7.24,2.28-12.01,1.58c-4.77-.7-16.42-1.58-16.42-1.58l1.24,6.89-1.24,3.71s-14.65-6.71-17.3-7.41c-2.65-.71-4.94-3.88-4.94-3.88,0,0,25.01-44.78,42.3-69.08,17.28-24.3,22.37-31.8,24.9-36.02,2.53-4.23,6.48-22.99,7.22-25.79.74-2.8,2.39-5.51,2.39-5.51l9.46-.9s-8.99-8.52-8.99-10.55,6.6-31.29,6.6-38.99v-8.33l5.71-5.3-7.73,1.51s2.78-9.59-3.91-17.91c-6.69-8.33-21.44-24.09-21.82-24.72s-3.66-3.03-3.66-3.03c0,0,15.89,20.69,20.81,32.42,4.92,11.73,2.27,40.11.76,51.46-1.51,11.35-11.98,39.1-16.9,50.58-4.92,11.48-34.56,53.67-42.38,65.56-7.82,11.89-27.5,48.72-28.25,52.76-.76,4.04-7.06,10.6-7.19,20.43-.13,9.84.25,19.8,1.14,22.58.88,2.78,1.39,4.92,1.39,4.92,0,0,9.33,6.05,22.2.76,12.87-5.3,27.5,1.01,34.31,1.64s11.29,8.33,28.86,8.33,32.27.63,43.46,1.26,25.69,12.61,25.69,12.61c0,0,3.59.69,8.32-4.16Z" fill="#f72e3c"/><path d="m110.02,69.61s10.88-2.49,24.26-9.97c13.37-7.47,32.26-14.69,46.42-15.21,14.16-.52,24.52-6.29,24.52-6.29,0,0-2.62-5.64-8.26-7.87-5.64-2.23-6.29-1.31-10.23-2.75-3.93-1.44-11.28-5.9-11.28-5.9,0,0,1.31,8,1.31,10.23s-2.1,3.28-2.1,3.28c0,0-8.13-5.38-12.46-8.65-4.33-3.28-9.31-7.87-9.31-7.87,0,0-.39,5.25-.39,10.62s-.66,6.82-.66,6.82c0,0-9.18-14.03-12.98-16.78-3.8-2.75-5.11-3.67-5.11-3.67l-2.88.79s.66,11.67.66,18.62-1.57,10.36-1.57,10.36c0,0-7.74-4.33-11.54-4.46-3.8-.13-9.97-.79-9.97-.79,0,0,6.95,6.29,8.13,11.01,1.18,4.72.79,8.13.79,8.13l-7.08,6.03-.26,4.33Z" fill="#901c14"/><path d="m20.99,120.22s2.23,6.56,2.23,11.54,1.18,6.16,1.31,8.79.92,8.39.92,8.39c0,0,3.41,1.84,6.95,1.84s11.15,3.67,11.15,3.67c0,0,13.9-9.44,18.62-11.8,4.72-2.36,14.82-7.47,14.82-7.47l6.03-3.15-4.2-1.84s-7.34,4.46-13.51,5.64c-6.16,1.18-15.21,4.06-17.05,4.33-1.84.26-4.59.66-4.59.66,0,0-1.97-5.11-6.43-8.13-4.46-3.02-7.87-8.52-7.87-8.52l-5.9-3.93h-2.49Z" fill="#901c14"/><path d="m362.13,130.73s-4.13,6.1-4.13,6.41-1.34,10.02-1.34,13.95,1.14,14.05,1.14,14.05l3.2,4.65s.83-6.72,1.14-7.75.1-10.64.52-15.6c.41-4.96-.52-15.71-.52-15.71Z" fill="#901c14"/><path d="m347.22,110.41s10.35-14.31,12.48-17.54c2.13-3.23,5.52-9.54,5.52-9.54,0,0,6-4.46,7.23-5.69s3.23-3.08,3.23-3.08l-3.69,16.31s-3.54,4-5.39,6.77-11.69,9.69-12.16,10.46-4,2.31-4,2.31h-3.23Z" fill="#901c14"/><path d="m380.94,154.93l-2.56-3.29s-.18-5.4,1.65-10.62c1.83-5.22,3.39-13.27,3.39-13.27,0,0-1.46-20.04-.37-26.45s4.3-10.07,4.3-10.34-.92-4.76,1.01-5.4c1.92-.64,3.29-2.1,3.29-2.1,0,0,.58-6.39,1.41-13.84s4.44-17.45,4.44-17.45v-2.36l2.64,6.8s4.03,29.15,4.03,33.04,5.47,24.51,5.62,33.82c.16,9.31,1.71,19.4,2.02,24.21s4.19,13.97,4.34,16.91,4.66,19.86,4.66,19.86l-2.48,2.17s-5.59-14.41-6.05-16.83c-.47-2.41-5.12-10.95-5.12-10.95l-4.66,8.22-2.91-6.36-2.21-1.24s-2.79,6.05-2.95,8.07c-.16,2.02-.16,9.78-.16,9.78l-2.33-.31-2.02-7.21-4.34-16.84-.16-8.07s-4.79,4.12-4.49,10.05Z" fill="#901c14"/><path d="m330.96,68.06s8.22-.16,11.95,0c3.72.16,10.4-.93,10.4-.93l1.86,1.71s7.6-4.66,11.33-5.9c3.72-1.24,7.29-3.26,7.29-3.26,0,0,8.38-10.86,8.38-13.35s7.45-17.07,7.45-17.07c0,0-13.75,15.05-13.94,16.91-.18,1.86-15.98,8.07-15.98,8.07l-19.27,10.71-9.47,3.1Z" fill="#901c14"/><path d="m304.74,46.34s20.02.47,22.5,0c2.48-.47,9.47-3.74,9.47-3.74l3.26-1.69s1.55-7.29,1.55-7.76,1.86-9.47,1.86-9.47h-.93s-6.52,10.09-7.29,10.4-15.83,8.52-15.83,8.52l-11.48,2.34-3.1,1.4Z" fill="#901c14"/><path d="m418.64,62.63s2.17,12.1,2.17,17.38,4.66,17.85,4.66,17.85l1.4,9,2.48,5.74s-6.36,9-6.36,10.71-.78,6.36-.78,6.36l-2.48,7.45-1.09,1.86s-3.1-17.38-2.95-22.97c.16-5.59-.93-23.59-.93-25.14s1.4-14.12,1.4-14.12l.78-11.64,1.71-2.48Z" fill="#901c14"/><path d="m393.16,343.11l6.43-2.11s14.48-18.81,16.42-22.5c1.93-3.69,14.41-18.46,16.52-20.57,2.11-2.11,8.26-11.25,8.26-11.25l3.87-3.87h1.41s-.7,8.79-1.41,10.37-2.46,5.27-2.46,5.27c0,0,8.61-7.73,8.79-9.32.18-1.58,4.75-7.73,4.75-7.73,0,0,21.97,6.33,24.61,6.33s11.07.88,11.07.88h8.09s-16-11.95-21.27-22.5c-5.27-10.55-11.07-20.57-11.6-21.27s-5.62-8.96-5.62-8.96l-3.87-7.91h7.03s-5.27-8.09-5.62-9.14-1.93-5.98-1.93-5.98c0,0-7.21-6.68-7.56-11.78-.35-5.1-2.81-20.92-2.72-24.08s-2.55-18.63-2.72-19.51-5.45-8.61-5.62-10.02c-.18-1.41.18-13.01.18-13.01l-5.1,11.95s3.69,4.75,3.87,8.44c.18,3.69,1.05,9.32,1.05,9.32l1.41,13.71s-3.34-8.26-4.39-9.49c-1.05-1.23-4.92-6.33-4.92-6.33,0,0,1.76,11.25,2.81,13.53,1.05,2.29,6.15,15.47,6.15,15.47,0,0,10.37,19.16,10.37,25.31s-1.23,18.28-1.23,18.98-8.26,16.68-8.61,17.3-3.87,8.01-5.1,13.46c-1.23,5.45-10.9,27.77-11.43,29.35-.53,1.58-8.79,12.83-9.14,13.36s-12.79,24.61-14.31,25.84c-1.51,1.23-6.43,8.44-6.43,8.44Z" fill="#901c14"/><path d="m282.35,322.52l7.7,4.62s7.6,2.6,10.3,2.69c2.69.1,9.14,2.21,9.62,2.5s5.97,3.37,6.35,3.46,2.21-.29,8.18-2.31,11.55-2.6,11.55-2.6c0,0,13.86,2.89,14.15,3.08s-.87-3.46-.87-3.46c0,0-3.27-9.14-3.27-9.43s5.87-4.52,9.82-7.89c3.95-3.37,7.8-12.22,7.8-12.61s-1.83-1.35-1.83-1.35l-6.06.48s3.85-.48-1.64.29c-5.49.77-16.55,9.43-19.44,11.16-2.89,1.73-9.34,2.21-15.01,2.21s-18-3.56-18.96-2.98-.19,5.97-.19,5.97l.38,7.99s-6.26.67-6.83.58-11.74-2.41-11.74-2.41Z" fill="#901c14"/><path d="m281.67,271.13s.11.23.29.63c.91,1.99,3.69,8.03,3.85,8.51.19.58,10.11,6.16,12.51,6.64s4.52,2.31,4.52,2.31l2.69-.67s-7.03-8.18-8.66-8.37c-1.64-.19-9.24-3.37-9.24-3.37l-4.72-6.16" fill="#901c14"/><path d="m326.23,260.25s-.96,8.95,0,11.16,5.29,11.93,5.49,12.32,4.52,4.52,4.52,4.52l2.21.38s1.64.1-.77-3.46-4.62-3.08-5.77-7.89-2.31-11.16-2.41-11.55-3.27-5.49-3.27-5.49Z" fill="#901c14"/><path d="m6.2,177.43s7.99,15.24,8.21,18.12,0,8.74,0,8.74l4.26,7.99v9.7s3.62,2.35,6.18,4.05c2.56,1.71,7.68,7.14,8.1,7.89s3.62,1.71,3.62,1.71l.75-3.3.85-2.13s8.21,4.69,8.74,6.08,2.13,6.82,2.98,8.21,6.93,8.53,7.04,9.06,3.62,2.03,3.62,2.03v-3.84s.53.53.53-6.82-3.52-12.9-3.52-12.9c0,0,3.84-.32,4.48-.32s3.41,3.09,5.22,4.16c1.81,1.07,2.45,3.52,2.45,3.52l.43-2.24s.64-3.2-.75-6.29-3.94-11.73-4.16-13.22-.96-4.9-.96-4.9c0,0,4.48.75,5.33.85s2.77,1.28,2.77,1.28l1.28-.64.96-3.41s1.71,1.17,3.94,1.28c2.24.11,7.36,4.69,8.63,5.01s3.84.53,3.84.53c0,0-.96-6.08-2.77-6.61-1.81-.53-6.4-4.48-9.17-5.33s-8.1-2.66-8.1-2.66l-3.09-.21.21,4.48-1.28,1.49s-5.01-1.71-7.89-2.66-7.57-4.9-7.57-4.9l-3.62-1.07s2.03,4.16,6.08,9.49c4.05,5.33,6.61,9.7,6.61,11.94s-.11,3.2-.11,3.2l-2.03,1.49s-2.88-2.56-5.44-3.52-9.91-6.93-10.55-7.25-8.21-7.04-8.21-7.04l-1.17-.85s2.88,6.82,3.41,8.9.53,4.85.53,4.85l-.85.43s-3.52-7.04-5.86-10.13c-2.35-3.09-5.97-5.01-8.1-8.21s-3.52-9.06-4.05-11.3-5.33-9.06-5.33-9.06l-6.5-5.65Z" fill="#901c14"/><path d="m128.47,216.5s6.18,9.11,9.17,9.65l2.98.53,1.17-5.09s4.48-2.8,4.9-2.9,9.06-1.17,12.26-1.17,8.42-1.92,8.85-2.03,5.01-4.8,5.01-4.8l.64,1.17s-1.6,6.5-1.92,8.53c-.32,2.03-3.41,6.29-3.41,6.29v7.57l-1.81,7.68-8.85,5.76-9.06-.75s-7.04-3.94-7.46-4.26-13.01-9.27-14.28-10.87c-1.28-1.6-1.6-7.57-1.6-7.57v-6.18l3.41-1.55Z" fill="#901c14"/><path d="m197.58,465.8s-12.47.12-17.63,2.16c-5.16,2.04-14.99,6.71-14.99,6.71l-5.4,4.44s-1.92-7.55-1.92-8.63-1.68-10.91-1.68-10.91v-2.28l-4.2-1.68-1.44-2.4s-5.76-.24-6.59,0-6.95,2.28-6.95,2.28l-4.68-5.4-3.84-1.56s-6.59,2.4-8.87,2.76-10.79,2.52-10.79,2.52c0,0-.84-4.8-2.04-6.71-1.2-1.92-2.28-7.19-2.28-7.19l-7.19-1.68s-4.8,2.28-9.11,2.52c-4.32.24-14.15.48-14.15.48,0,0,.12-14.75,0-17.51s-5.28-18.35-5.64-20.02-8.99-6.24-8.99-6.24l-5.4,1.08-4.92.36s6.12-10.19,6.12-12.11-1.92-11.39-2.04-12.23-2.88-7.19-2.88-7.19c0,0,21.58,27.82,25.18,31.65,3.6,3.84,14.15,19.54,19.66,22.9,5.52,3.36,75.06,32.73,78.18,33.57,3.12.84,13.67,5.52,14.51,5.64.84.12,9.95,2.28,9.95,2.28v2.4Z" fill="#901c14"/><path d="m258.01,467.48s15.59-5.04,19.78-5.04,13.91-1.32,14.51-1.32,1.32.48,7.43,0,24.7-6,28.3-6,16.91-4.56,16.91-4.56l7.67-4.44,1.2.72s-13.79,8.15-15.71,8.75-4.92,3.72-4.92,3.72c0,0,.72.48.72,6.12s1.08,12.71,1.08,12.71c0,0-2.4-2.76-4.44-4.32s-6.35-6.59-6.35-6.59c0,0-.93,7.67-1.18,10.91s-5.53,8.51-5.53,8.51c0,0-2.52-2.04-8.63-4.2-6.12-2.16-12.83-3.36-17.03-6.35-4.2-3-9.47-6.47-9.47-6.47l-6.24-.36-10.79-.72-7.31-1.08Z" fill="#901c14"/><path d="m106.69,87.22s23.09-18.79,34.85-23.52c11.76-4.73,16.92-10.47,28.25-10.76,11.33-.29,20.14,0,20.14,0,0,0,5.82.86,6.39,1s5.74,4.16,6.6,4.3c.86.14,2.3,2.29,2.3,2.29l-5.6,4.16,5.6.86s-5.75,8.31-7.26,9c-1.51.69-5.39,2.74-5.39,2.74,0,0,10.88-.31,15.3-2.74,4.42-2.43,11.31-4.55,11.31-4.55,0,0,7.87,3.95,10.45,6.97s9.91,15.51,9.91,15.51v5.72l-12.28,1.94-10.88,1.51s8.4.43,10.02.43,14.98-.86,15.41-.86h1.29s7.87,3.23,3.77,13.04c-4.09,9.81-8.73,18.43-12.39,22.63-3.66,4.2-7.87,13.58-8.62,14.87s-4.2,3.88-4.2,3.88l-6.36-1.2,4.63,5.83s.22,9.48-2.8,13.9c-3.02,4.42-26.52,27.68-32.65,28.38s-14.84,5.6-16.26,6.83c-1.41,1.23-1.79,2.26-5.47,2.73-3.68.47-5.72,1.79-6.68,1.98s-6.33,1.23-6.33,1.23c0,0-5.09.75-7.35,1.7-2.26.94-7.82-1.32-8.3-1.6s-11.22-5.94-11.97-6.22-8.96,8.12-9.41,8.05-5.7-.41-11.96-2.76c-6.26-2.35-10.56-6.04-17.75-9.28s-6.97-10.51-6.97-10.51l-5.03-3.13-.56-2.57,16.55-5.93s-3.91-3.24-5.59-3.24-15.77-.45-17.89-.45-9.62-5.03-9.62-5.03l-1.91-2.12s13.54-3.13,18.57-6.26c5.03-3.13,6.04-3.91,6.04-3.91l-2.8-.78s-12.64,5.81-14.42,5.93-17.67-1.12-19.23-1.01c-1.57.11-5.17-1.68-5.17-1.68l1.48-3.47s18.79-8.61,25.72-12.3c6.93-3.69,20.83-11.41,20.83-11.41,0,0,4.1-4.8,7.01-7.82,2.91-3.02,6.6-10.29,6.6-10.29,0,0-10.18,3.02-15.43,4.14s-11.85,5.03-12.3,5.03h-7.16l.89-2.24,4.81-3.02s-3.69-1.01-6.6-.89c-2.91.11-6.37-2.02-6.37-2.02l-1.79-2.11s8.61-.45,11.18-1.57,5.48-4.25,5.48-4.25l-.45-2.24s15.1-12.64,22.7-14.76,15.1-8.08,15.1-8.08Z" fill="#fe8100"/><path d="m63.15,277.66s4.24,11.06,4.36,21,3.35,15.19,3.35,15.19l1.79-3.8,1.68-4.02,1.68-1.45,1.68.56,3.69,11.61,3.8,2.46s-1.49-6.37,5.9-13.18c7.39-6.81,14.76-14.41,14.76-14.41l.45-5.03,2.01-.22,3.35,5.58,5.25-5.25,2.12-6.78,1.79-6.51s8.6,1.01,12.84-1.01,6.03-4.91,6.03-4.91l1.87-3.69s-4.21,3.57-5.44,3.57-2.79-5.47-2.79-5.47l-8.23-1.45s-.59-.67-6.06-1.79c-5.47-1.12-7.26-4.55-7.92-4.95s-3.33-1.06-3.33-1.06c0,0-9.76,6.54-13.64,7.99s-8.09,4.77-8.09,4.77l-2.33,1.55s-1.02,5.32-.68,6.76,0,4.1,0,4.1v3.66s-2.65-1.33-4.76-4.43-3.66-4.66-3.66-4.66l-2.55-.89-2.44,2.88-3.44,3.99-3.01-.73Z" fill="#fe8100"/><path d="m176.86,410.82s-10.42-19.86-11.01-27.11c-.59-7.25-3.37-17.12-3.29-17.38s-1.18-17.29-1.18-26.65,3.63-14.51,4.64-19.15c1.01-4.64-.59-13.08,6.66-21.3,7.25-8.22,23.37-26.17,26.91-28.58,3.54-2.41,15.92-15.06,17.24-17.37,1.32-2.31,6.52-15.05,6.52-15.05l-2.25.87s-7.68,14.17-11.48,15.58c-3.8,1.41-17.21,17.25-18.23,17.29s-16.59,16.21-20.98,19.92-10.79,16.94-12.74,23.9c-1.95,6.96-3.67,22.05-3.62,22.47s1.53,17.78,1.63,19.97c.09,2.18,3.72,12.64,3.8,16.57.07,3.93,7.78,23.94,10.15,27.35s5.34,5.98,7.23,8.66Z" fill="#fe8100"/><path d="m249.52,199.92s-.71-5.23-.71-6.46,3.77-20.59,4.38-26.02c.61-5.43,3.94-19.27,4.99-20.68s5.87-6.22,8.67-14.02c2.8-7.8,2.37-16.12,2.37-16.12l.71-2.74s2.46,11.94,0,18.95c-2.46,7.01-5.88,11.48-5.97,12.44s-4.12,16.03-5.17,20.33c-1.05,4.29-6.48,29.61-7.27,32.15-.79,2.54-2.72,7.18-2.72,7.18" fill="#fe8100"/><path d="m186.46,43.92s1.03-1.52,1.9-4.61c.86-3.08.91-4.85.91-4.85l-1.13-4.26s4.78,1.45,6.31,3.08,3.67,2.49,3.85,2.81,2.49,1.07,3.4.97,1.18-2.44,1.18-2.44l2.88,2.75s4.56,5.21,5.15,6.55c.59,1.33,9.57,8.5,11.43,9.63,1.86,1.13,2.9,2.18,3.76,2.72s10.02,7.57,11.88,9.12,7.62,6.94,10.39,10.11c2.77,3.17,11.57,14.69,13.15,17.37s1.41,4.56,1.41,4.56c0,0-2.09-1.61-2.77-2.56s-4.22-7.3-5.31-8.21c-1.09-.91-7.26-6.71-7.98-7.71s-3.31-5.9-4.26-6.26c-.95-.36-14.38-5.94-16.28-7.3s-3.63-1.77-3.76-1.77-4.08,1-4.08,1c0,0,2.31-2.36,2.68-2.77.36-.41,1.5-1.45,1.5-1.45,0,0-.95-.5-1.13-.5h-2.27l-2.36-.73,1.5-1.18s.63-4.22.05-4.9-5.67-4.44-8.07-5.31c-2.4-.86-5.85-1.18-6.98-1.18s-3.76-1.63-3.99-1.68-4.22.18-4.63.23-3.81.27-3.95.27-4.34-1.52-4.34-1.52Z" fill="#c52e24"/><path d="m116.94,76.01l-3.25-1s9.7-6.44,12.05-7.57,4.42-1.49,4.42-1.49l3.43-.86,2.12-3.07,9.75-2.26-20.08,12.32" fill="#f72e3c"/><path d="m123.71,42.35s2.2-4.42,2.52-5.41,2.93-6.14,2.93-6.14l.68-8.39s-.99-3.79-.99-4.02-.23-3.25-.23-3.25l1.2-3.86-3.04,3.14s-.86,8.66-.86,8.84-2.06,9.88-2.2,10.38-1.36,2.93-1.36,2.93l-2.12,2.89-2.25,1.41,5.74,1.48Z" fill="#f72e3c"/><path d="m152.9,18.6l-2.09,1.83s-.73,2.06-.76,2.14-3.2,3.87-3.2,3.87l-.51,1.62-2.5-3.34,4.12-3.89.78-.26.74-2.1h.19l3.12.14" fill="#f72e3c"/><polygon points="176.12 22.02 176.3 25.98 177.25 29.12 177.03 30.78 177.36 32.7 176.57 33.98 175.54 35.6 173.51 35.19 171.09 32.72 172.75 31.4 174.23 28.5 174.76 23.06 175.05 21.42 175.57 21.42 176.12 22.02" fill="#c52e24"/><path d="m172.65,354.29s.82-2.28-.86-3.6c-3.2-2.51-3.28-9.9,1.21-10.27,4.48-.37,6.4,5.07,3.89,7.63-2.51,2.56-.74,4.9,1.26,8.05,1.99,3.15.96,6.72-3.67,6.75-4.63.02-2.68-5.91-1.82-8.57Z" fill="#fe8100"/><ellipse cx="177.05" cy="368.47" rx="2.75" ry="2.87" fill="#fe8100"/><ellipse cx="171.04" cy="335.74" rx="1.84" ry="1.92" fill="#fe8100"/><ellipse cx="176.14" cy="330.69" rx="1.84" ry="1.92" fill="#fe8100"/><path d="m229.16,381.27s-3.92,1.87-4.09-1.13,2.02-6.45,5-3.89c2.98,2.56,4.53,2.88,10.22.94,5.69-1.95,7.21,4.26,3.25,5.27s-9.46-3.77-14.38-1.18Z" fill="#fe8100"/><ellipse cx="252.28" cy="382.2" rx="2.73" ry="2.57" fill="#fe8100"/><ellipse cx="293.78" cy="388.82" rx="3.77" ry="2.67" fill="#fe8100"/><ellipse cx="303.84" cy="389.52" rx="3.02" ry="1.97" fill="#fe8100"/><path d="m226.18,41.84s-2.76-.89-3.28.91,1.03,2.01,3.93,2.85-.56,2.81,1.97,3.04c2.53.23,1.43,2.15,3.11,2.13s3.51-.75,1.4-1.57c-2.11-.82-2.36-.98-.77-2.25,1.59-1.26-.19-1.1-2.48-2.11-2.29-1.01.21-1.87-3.88-3.02Z" fill="#fe8100"/><path d="m241.3,59.5s-1.73,1.17-.44,1.69c1.29.52,3.23.89,2.41,1.74-.83.84,1.45.98,2.36.62s.5-1.33-.95-1.58c-1.17-.21-.76-1.27-.15-1.65s-1.6-1.58-3.22-.81Z" fill="#fe8100"/><ellipse cx="246.87" cy="65.55" rx="1.02" ry=".75" fill="#fe8100"/><ellipse cx="220.19" cy="43.03" rx="1.65" ry="1.22" fill="#fe8100"/><path d="m236.21,31.78s1.17,2.79,3.27,4.8c2.1,2.01,6.55,5.33,7.78,8.56,1.22,3.23,5.68,5.68,7.78,10.05,2.1,4.37,5.51,8.55,5.51,8.55l1.49,1.05s-1.66-2.76-1.75-3.3-2.69-6.83-2.83-7.35-2.68-5.32-4.77-7.95c-2.1-2.63-5.41-8.92-5.81-9.18s-1.9-5.05-1.9-5.05l-8.76-.19Z" fill="#f72e3c"/><path d="m26.54,227.36s2.91,1.05,4.63,2.21c1.72,1.16,1.98,1.31,1.98,1.31l2.69-1.76s1.8.04,2.09,0,2.09,2.17,2.09,2.17l-2.86,9.28-.13-2.99s-2.51-1.46-2.62-1.57-1.94-2.51-1.94-2.51l-5.94-6.14Z" fill="#c52e24"/><path d="m14.09,235.53s2.56,6.72,2.88,7.68,1.49,3.09,1.49,3.09c0,0,4.9,2.66,8.21,4.05s8.31,6.93,8.31,6.93v-3.09s-2.24-4.19-2.24-4.65.53-6.11-.85-6.33c-1.39-.21-8.53-1.39-8.53-1.39l-3.62-2.45-5.01-3.84" fill="#901c14"/><polygon points="19.83 247.02 21.15 248.79 24.1 251.45 26.54 253.32 29.49 258.07 31.51 259.94 34.05 261.58 35.66 265.81 36.48 264.39 34.98 256.87 32.03 253.09 28.48 249.43 23.77 247.67 19.83 247.02" fill="#c52e24"/><path d="m52.07,365.01l-4.3-5.13.47,6.67s.47,8.59.65,8.73,1.73,3.08,1.82,3.36-.14,9.53-.14,10.18-2.8,8.92-2.8,8.92c0,0-.98,2.99-1.07,3.22s-1.81,5.78-1.81,5.78l1.56-1.07,6.09-7.06-.98-2.23,4.9-10.23-.51-5.79-.89-4.39,1.49-.09,4.2-4.06-8.69-6.82Z" fill="#c52e24"/><path d="m253.73,472.63s-10.65-11.03-14.43-14.66c-3.78-3.63-11.88-15.66-12.19-16.2s-1.23-3.86-1.23-3.86l10.11,3.78s10.42,1.23,11.11,1.31l.69.08s3.97,3.32,7.23,3.47,14.53.85,15.84,1.08c1.31.23,16.28,3.32,16.28,3.32l16.7,1.85.74,2.08-7.56,3.7s-12.73-.93-17.67-.46-11.88,3.24-13.12,3.63-9.57,3.39-9.88,3.47,1.66,2.26,1.66,2.26c0,0,11.16.67,14.67.67h6.13l3.54,1.49s-6.71,3.7-7.79,3.85-6.94.78-6.94.78c0,0-9.72,1.45-13.5-1.41" fill="#f72e3c"/><path d="m155.67,484.33l4.59-5.8s3.94-3.9,7.15-5.5,12.19-6.64,12.19-6.64c0,0,8.43-.05,8.8-.08s9.16-.52,9.16-.52l-.52-2.52s-4.03-2.82-4.22-3.08-4.62-8.41-4.81-9.18-.77-10.14-.83-10.46-3.53-10.21-4.62-12.52-7.25-8.92-8.15-9.69-3.98-6.03-3.98-6.03l-.32-2.05,5.2,3.66s4.36,4.75,6.48,7.89c2.12,3.14,8.34,10.21,13.93,16.5,5.58,6.29,7.57,12.39,7.57,12.39,0,0,5.2,6.55,5.58,7.57s10.4,8.22,10.98,8.66,4.17,5.9,4.17,5.9l2.65,1.21s-7.02,1.3-9,1.3-8.41-2.7-8.41-2.7l-1.8-.45s-4.88,1.22-5.2,1.28-9.24,3.28-10.53,3.28-8.15.06-8.15.06l-6.46.11-5.8,2.18-3.98.34-9.24,4.56-2.44.68" fill="#f72e3c"/><path d="m199.1,367.36l-3.87-2.66s-1.66-15.43-1.66-17.94,1.4-10.97,1.47-11.34,3.39-7.36,3.53-7.8,7.8-16.93,8.54-19.22,7.51-12.76,7.51-12.76l-2.74,10.38-.48,7.64s.84,4.88.84,5.54,4.3,5.32,4.3,5.32c0,0,6.2,5.05,10.14,6.16s13.25,4.21,13.96,4.45-1.55-.95.72.24c2.27,1.19,19.9,10.48,19.9,10.48,0,0,4.66,1.47,8.55,1.9s17.53,5.01,18.13,5.18c.6.17,16.31,7.91,16.31,7.91l10.39,7,24.37,5.51s6.09,1.88,6.3,2,.64.41.64.41l7.54,8.52,2.81,3.27-10.51-4.57s-18.43-6.41-18.64-6.48-21.82,1.58-29.59,1.94c-7.77.36-17.2.79-19.29.86-2.09.07-14.68-6.55-16.2-6.77-1.51-.22-8.93-6.19-8.93-6.19l-10.58-.5s-12.88-1.08-14.47-1.15c-1.58-.07-14.32,3.1-14.32,3.1,0,0-7.92,2.02-8.21,2.02s-6.46-2.46-6.46-2.46Z" fill="#c52e24"/><g mix-blend-mode="multiply" opacity=".4"><g><path d="m420.9,81.45c-.06-.52-.09-1.01-.09-1.44,0-4.28-1.43-13.06-1.97-16.22h0c-.12-.74-.2-1.16-.2-1.16l-3.88-2.22-.46.16c2.48,6.83,4.68,13.8,6.61,20.88Z" fill="#901c14"/><path d="m482.68,272.77c-1.78-2.19-3.35-4.45-4.44-6.64-5.27-10.55-11.07-20.57-11.6-21.27-.19-.25-.95-1.45-1.85-2.89l4.63-6.36,6.28-5.16v-4.09s-11.62-13.8-13.8-14.56c-2.17-.77-4.85-9.33-4.85-9.33l-1.66-8.05s-4.34-17.88-4.6-23.89c-.26-6-4.55-15.87-4.45-20.26.1-4.39-1.94-23.42-1.94-25.72s1.02-14.44,1.02-15.84-1.02-3.07-1.02-3.07c0,0-4.34,1.02-6,1.02s-10.05,3.6-10.41,2.78l-1.11-2.58-1.4-9s-.79-2.14-1.72-5.02c4.32,19.14,6.61,39.04,6.61,59.48,0,148.57-120.44,269.01-269.01,269.01-44.09,0-85.7-10.61-122.43-29.41-.91,7.97-2.1,17.81-2.1,17.81l4.01-.11s1.9-1.35,4.19-2.93l1.28-.88c2.52-1.73,5.18-3.49,6.21-3.98,2.18-1.03,5.61-1.03,5.61-1.03,0,0,4.58,2.52,5.84,3.89s4.35,18.09,4.24,20.04c-.11,1.95-1.37,17.18-1.37,17.18l1.83,1.49s1.49-.11,11.34-.11,19.47-2.29,19.47-2.29c0,0,3.21,5.04,3.78,6.3s1.95,10.31,1.95,10.31c0,0,7.67-.11,11.11-1.37,3.44-1.26,12.25-2.98,12.25-2.98,0,0,1.03,1.72,2.06,2.18,1.03.46,2.18,4.92,2.18,4.92l3.21-.57,3.66.46,5.5-.46h6.76v5.15s1.03,7.33,1.15,8.57c.11,1.24,1.03,10.67,1.03,10.67l2.01.69s.23-.17.6-.43l1.42-.4,9.24-4.56,3.98-.34,5.8-2.18,6.46-.11s6.87-.06,8.15-.06,10.21-3.21,10.53-3.28c.32-.07,5.2-1.28,5.2-1.28l1.8.45s6.42,2.7,8.41,2.7,9-1.3,9-1.3c2.82-.3,5.17-.57,5.17-.57l.04-.13c2.35.41,5.34-.61,8.58-.02,3.93.72,5.84-1.38,5.84-1.38,0,0,4.17.75,8.59,1.39,4.18,2.19,12.72.92,12.72.92,0,0,5.86-.64,6.94-.78,1.08-.15,7.79-3.85,7.79-3.85,0,0,5.28,3.48,9.47,6.47,4.2,3,10.91,4.2,17.03,6.35,6.12,2.16,8.63,4.2,8.63,4.2,0,0,7.49-4.64,9-6.51,1.09-1.35,2.59-4.99,3.35-6.93.26.23.5.44.72.61,2.04,1.56,4.44,4.32,4.44,4.32,0,0-.02-.15-.06-.4l2.14.8,2.22-2.22s1.87-14.6,1.87-15.31,2.94-4.45,3.38-4.81c.45-.36,11.12-4.63,16.46-7.92,5.34-3.29,12.82-9.61,12.82-9.61l5.25-6.59c6.47.23,4.82-6.34,7.25-7.6,2.43-1.26,2.94-4.86,2.94-4.86h2.99s15.93-16.55,20.65-22.43c4.72-5.87,16.02-25.01,19.4-30.35,3.38-5.34,9.08-15.93,9.26-18.42.18-2.49,2.58-5.33,2.58-5.33l3.74-1.25,2.49-3.92-.62-5.25s10.5-3.83,12.28-4.89c1.78-1.07,2.76-2.85,2.76-2.85l-.71-4.09-2.85-8.37s21.09-12.01,26.79-14.42c5.7-2.4,9.79-5.16,9.79-5.16l1.7-4.29-16.82-15.86Z" fill="#901c14"/></g></g></g></g></svg>