        <svg xmlns="http://www.w3.org/2000/svg" viewBox="0 0 483.09 476.95">
            <g id="Illustrasjoner">
                <polyline
                    points="428.02 205.23 437.74 346.31 46.13 346.31 56.54 205.23"
                    fill="#487e67"
                />
                <path
                    d="m.09,424.95h483v29.61c0,12.36-10.03,22.39-22.39,22.39H22.48c-12.36,0-22.39-10.03-22.39-22.39v-29.61H.09Z"
                    fill="#487e67"
                />
                <path
                    d="m433.09,280.95H66.37c-10.05,0-18.99,6.35-22.3,15.84L1.23,419.58c-4.96,14.38,5.72,29.37,20.93,29.37h438.68c15.26,0,25.95-15.08,20.89-29.48l-48.65-138.52Z"
                    fill="#75eeb4"
                />
                <g>
                    <path
                        d="m81.76,280.69c-7.91,0-15.55-3.32-20.95-9.1s-8.19-13.63-7.65-21.52l15.21-223.35C69.39,11.74,81.95,0,96.97,0h290.23C402.23,0,414.79,11.74,415.81,26.73l15.21,223.35c.54,7.9-2.25,15.74-7.66,21.52-5.4,5.78-13.04,9.1-20.95,9.1H81.76Z"
                        fill="#487e67"
                    />
                    <path
                        d="m387.21,18H96.97c-5.61,0-10.27,4.35-10.65,9.95l-15.21,223.35c-.42,6.17,4.47,11.4,10.65,11.4h320.66c6.18,0,11.07-5.23,10.65-11.4l-15.21-223.35c-.38-5.6-5.03-9.95-10.65-9.95Z"
                        fill="#690000"
                    />
                </g>
                <line
                    x1="45.25"
                    y1="322.22"
                    x2="16.55"
                    y2="404.52"
                    fill="none"
                    stroke="#93ffa2"
                    strokeLinecap="round"
                    strokeMiterlimit="10"
                    strokeWidth="19"
                />
                <path
                    d="m401.52,383.68H81.3c-5.94,0-10.19-5.74-8.46-11.42l21.39-70.05c1.14-3.72,4.57-6.26,8.46-6.26h279.9c3.99,0,7.49,2.68,8.53,6.53l18.93,70.05c1.52,5.62-2.71,11.15-8.53,11.15Z"
                    fill="#487e67"
                />
                <path
                    d="m311.86,432.23h-140.1c-6.69,0-11.48-6.47-9.53-12.87l6.9-22.59c1.28-4.19,5.15-7.05,9.53-7.05h127.09c4.5,0,8.44,3.02,9.62,7.36l6.11,22.59c1.71,6.33-3.06,12.56-9.62,12.56Z"
                    fill="#487e67"
                />
                <path
                    d="m72.58,97.38l4.77-70.04c.7-10.28,9.32-18.34,19.63-18.34h42.97"
                    fill="none"
                    stroke="#93ffa2"
                    strokeLinecap="round"
                    strokeMiterlimit="10"
                    strokeWidth="18"
                />
                <line
                    x1="66.78"
                    y1="182.5"
                    x2="69.54"
                    y2="141.91"
                    fill="none"
                    stroke="#93ffa2"
                    strokeLinecap="round"
                    strokeMiterlimit="10"
                    strokeWidth="18"
                />
                <g>
                    <g>
                        <path
                            d="m339.44,58.27h-194.7c-3.77,0-6.89,2.92-7.14,6.67l-1.38,20.32h211.75l-1.38-20.32c-.26-3.76-3.38-6.67-7.14-6.67Z"
                            fill="#f1fffa"
                        />
                        <path
                            d="m127.39,214.78c-.28,4.14,3,7.65,7.14,7.65h215.11c4.15,0,7.42-3.51,7.14-7.65l-8.82-129.51h-211.75l-8.82,129.51Z"
                            fill="#ff6465"
                        />
                    </g>
                    <line
                        x1="136.66"
                        y1="85.27"
                        x2="347.76"
                        y2="85.27"
                        fill="none"
                        stroke="#487e67"
                        strokeMiterlimit="10"
                        strokeWidth="4"
                    />
                    <circle cx="150.54" cy="71.66" r="4.84" fill="#ee493f" />
                    <circle cx="163.12" cy="71.69" r="4.84" fill="#ffba36" />
                    <circle cx="176.04" cy="71.69" r="4.84" fill="#44d736" />
                </g>
                <g mix-blend-mode="multiply" opacity=".4">
                    <path
                        d="m481.8,454.55v-29.61h-.17c-.16-1.82-.54-3.65-1.19-5.48l-48.47-138.01-5.25-76.22h-.05l-12.16-178.51c-1.02-14.98-13.59-26.72-28.61-26.72h0l-135.96,280.95,151.09,168.28-.97,27.72h59.33c12.37,0,22.39-10.03,22.39-22.39Z"
                        fill="#487e67"
                    />
                </g>
                <g>
                    <path
                        d="m253.75,119.48c9.23,3.32,16.74,10.25,20.81,19.08,2.15,4.65,3.34,9.82,3.34,15.28,0,4.94-.98,9.66-2.76,13.96"
                        fill="none"
                        stroke="#fff700"
                        strokeMiterlimit="10"
                        strokeWidth="7"
                    />
                    <path
                        d="m206.64,165.01c-1.13-3.52-1.74-7.27-1.74-11.16,0-17.52,12.34-32.16,28.81-35.69"
                        fill="none"
                        stroke="#fff700"
                        strokeMiterlimit="10"
                        strokeWidth="7"
                    />
                    <path
                        d="m261.39,184.39c-5.74,3.76-12.61,5.95-19.99,5.95-8.54,0-16.39-2.93-22.61-7.84"
                        fill="none"
                        stroke="#fff700"
                        strokeMiterlimit="10"
                        strokeWidth="7"
                    />
                    <polyline
                        points="263 154.7 272.76 171.76 292.82 164.4"
                        fill="none"
                        stroke="#fff700"
                        strokeMiterlimit="10"
                        strokeWidth="7"
                    />
                    <polyline
                        points="234.6 174.12 215.54 178.9 217.19 200.2"
                        fill="none"
                        stroke="#fff700"
                        strokeMiterlimit="10"
                        strokeWidth="7"
                    />
                    <polyline
                        points="228.44 135.76 238.54 116.88 222.31 105.01"
                        fill="none"
                        stroke="#fff700"
                        strokeMiterlimit="10"
                        strokeWidth="7"
                    />
                </g>
            </g>
        </svg>